<svg width="31" height="31" viewBox="0 0 31 31" fill="none" xmlns="http://www.w3.org/2000/svg">
<path d="M23.25 0H7.75C3.46979 0 0 3.46979 0 7.75V23.25C0 27.5302 3.46979 31 7.75 31H23.25C27.5302 31 31 27.5302 31 23.25V7.75C31 3.46979 27.5302 0 23.25 0Z" fill="white"/>
<path d="M21.7 14.5235C21.8913 15.8135 21.671 17.1309 21.0704 18.2885C20.4697 19.446 19.5194 20.3847 18.3546 20.971C17.1897 21.5573 15.8696 21.7614 14.5821 21.5542C13.2946 21.347 12.1052 20.7391 11.183 19.817C10.2609 18.8948 9.65303 17.7054 9.44585 16.4179C9.23866 15.1304 9.44274 13.8103 10.029 12.6455C10.6154 11.4806 11.554 10.5303 12.7116 9.92965C13.8691 9.32903 15.1866 9.10869 16.4765 9.29998C17.7924 9.4951 19.0106 10.1082 19.9512 11.0489C20.8918 11.9895 21.5049 13.2076 21.7 14.5235Z" fill="#C3C3C3"/>
<path d="M24.025 6.97498H24.041" stroke="#C3C3C3" stroke-width="2" stroke-linecap="round" stroke-linejoin="round"/>
</svg>
