<svg width="36" height="28" viewBox="0 0 36 28" fill="none" xmlns="http://www.w3.org/2000/svg">
<path d="M35.0613 0.0155966C33.576 1.06327 31.9315 1.86458 30.1911 2.38865C29.257 1.31459 28.0156 0.553321 26.6347 0.207808C25.2538 -0.137705 23.8002 -0.0507937 22.4703 0.456788C21.1404 0.96437 19.9985 1.86813 19.199 3.04584C18.3996 4.22355 17.9811 5.61839 18.0001 7.0417V8.59271C15.2744 8.66339 12.5736 8.05887 10.1381 6.833C7.70255 5.60713 5.60801 3.79796 4.041 1.56661C4.041 1.56661 -2.16307 15.5258 11.7961 21.7298C8.6018 23.8981 4.79658 24.9853 0.938965 24.8318C14.8981 32.5869 31.9593 24.8318 31.9593 6.99517C31.9579 6.56314 31.9163 6.13217 31.8352 5.70782C33.4182 4.14672 34.5352 2.17572 35.0613 0.0155966Z" fill="white"/>
</svg>
